<svg width="22" height="22" viewBox="0 0 22 22" fill="none" xmlns="http://www.w3.org/2000/svg">
<path d="M11 20.8541C5.56415 20.8541 1.14581 16.4358 1.14581 10.9999C1.14581 5.56409 5.56415 1.14575 11 1.14575C16.4358 1.14575 20.8541 5.56409 20.8541 10.9999C20.8541 16.4358 16.4358 20.8541 11 20.8541ZM11 2.52075C6.32498 2.52075 2.52081 6.32492 2.52081 10.9999C2.52081 15.6749 6.32498 19.4791 11 19.4791C15.675 19.4791 19.4791 15.6749 19.4791 10.9999C19.4791 6.32492 15.675 2.52075 11 2.52075Z" fill="#BAABA0"/>
<path d="M8.40585 14.2817C8.23168 14.2817 8.05752 14.2176 7.92002 14.0801C7.65418 13.8142 7.65418 13.3742 7.92002 13.1084L13.1084 7.92008C13.3742 7.65424 13.8142 7.65424 14.08 7.92008C14.3459 8.18591 14.3459 8.62591 14.08 8.89174L8.89168 14.0801C8.76335 14.2176 8.58002 14.2817 8.40585 14.2817Z" fill="#BAABA0"/>
<path d="M13.5942 14.2817C13.42 14.2817 13.2459 14.2176 13.1084 14.0801L7.92002 8.89174C7.65418 8.62591 7.65418 8.18591 7.92002 7.92008C8.18585 7.65424 8.62585 7.65424 8.89168 7.92008L14.08 13.1084C14.3459 13.3742 14.3459 13.8142 14.08 14.0801C13.9425 14.2176 13.7684 14.2817 13.5942 14.2817Z" fill="#BAABA0"/>
</svg>
