<svg width="17" height="11" viewBox="0 0 17 11" fill="none" xmlns="http://www.w3.org/2000/svg">
<path fill-rule="evenodd" clip-rule="evenodd" d="M16 0H15C14.4477 0 14 0.430456 14 1V10C14 10.5695 14.4477 11 15 11H16C16.5523 11 17 10.5695 17 10V1C17 0.430456 16.5523 0 16 0ZM10 2H11C11.5523 2 12 2.40353 12 3V10C12 10.5965 11.5523 11 11 11H10C9.44771 11 9 10.5965 9 10V3C9 2.40353 9.44771 2 10 2ZM7 5H6C5.44772 5 5 5.44772 5 6V10C5 10.5523 5.44772 11 6 11H7C7.55228 11 8 10.5523 8 10V6C8 5.44772 7.55228 5 7 5ZM2 7H1C0.447715 7 0 7.44772 0 8V10C0 10.5523 0.447715 11 1 11H2C2.55228 11 3 10.5523 3 10V8C3 7.44772 2.55228 7 2 7Z" fill="#474646"/>
</svg>
