<svg width="17" height="13" viewBox="0 0 17 13" fill="none" xmlns="http://www.w3.org/2000/svg">
<path fill-rule="evenodd" clip-rule="evenodd" d="M9 3C11.0704 3.0001 12.2991 4.2584 13.7717 5.76651L13.7724 5.76718C13.8476 5.84418 13.9234 5.92183 14 6C14.1188 6.12425 14.883 6.1262 15 6L16 5C16.0472 4.94901 16.0195 4.40191 16.006 4.13587C16.0026 4.06795 16.0001 4.01835 16 4C11.8601 -0.258219 5.13993 -0.258219 1 4C0.99989 4.01825 0.997402 4.0674 0.993993 4.13474C0.980549 4.40035 0.952784 4.9489 1 5L2 6C2.11691 6.12639 2.8813 6.12445 3 6C4.57751 4.39044 6.82341 2.99999 9 3ZM8.99999 8C10.2237 7.99992 11.0929 8.10048 12 9C12.1227 9.12766 12.8804 9.13113 13 9L14 8C14.0488 7.94619 14.0202 7.40084 14.0063 7.13518V7.13516C14.0028 7.06826 14.0002 7.0191 14 7C11.2377 4.18613 6.76228 4.18613 3.99999 7C3.99983 7.01922 3.99722 7.06884 3.99368 7.13635L3.99368 7.13636C3.9797 7.40248 3.95114 7.94635 3.99999 8L4.99999 9C5.11959 9.13113 5.8773 9.12766 5.99999 9C6.90649 8.10107 7.77707 8.00055 8.99999 8ZM5.99999 10C7.3786 9.04082 9.62138 9.04082 11 10L8.99999 12C8.98091 12 8.92785 12.0024 8.85545 12.0056C8.58627 12.0176 8.04986 12.0415 7.99999 12L5.99999 10Z" fill="#474646"/>
</svg>